<!-- Generator: Adobe Illustrator 23.0.3, SVG Export Plug-In  -->
<svg version="1.1" xmlns="http://www.w3.org/2000/svg" xmlns:xlink="http://www.w3.org/1999/xlink" x="0px" y="0px"
	 width="30.931px" height="30.931px" viewBox="0 0 30.931 30.931" style="enable-background:new 0 0 30.931 30.931;"
	 xml:space="preserve">
<style type="text/css">
	.st0{fill:#2C435D;}
	.st1{fill:#FFFFFF;}
</style>
<defs>
</defs>
<g>
	<g>
		<circle class="st0" cx="15.466" cy="15.466" r="15.466"/>
	</g>
	<g id="XMLID_2_">
		<g id="XMLID_5_">
			<path id="XMLID_10_" class="st1" d="M24.949,10.671c-0.228-0.857-0.898-1.532-1.75-1.761c-1.544-0.416-7.733-0.416-7.733-0.416
				s-6.19,0-7.733,0.416c-0.852,0.229-1.522,0.904-1.75,1.761c-0.414,1.554-0.414,4.795-0.414,4.795s0,3.241,0.414,4.795
				c0.228,0.857,0.898,1.532,1.75,1.761c1.544,0.416,7.733,0.416,7.733,0.416s6.19,0,7.733-0.416
				c0.852-0.229,1.522-0.904,1.75-1.761c0.414-1.554,0.414-4.795,0.414-4.795S25.362,12.224,24.949,10.671z"/>
			<g id="XMLID_8_">
				<polygon class="st0" points="13.441,18.409 13.441,12.523 18.615,15.466 				"/>
			</g>
		</g>
	</g>
</g>
</svg>