<!-- Generator: Adobe Illustrator 24.0.1, SVG Export Plug-In  -->
<svg version="1.1" xmlns="http://www.w3.org/2000/svg" xmlns:xlink="http://www.w3.org/1999/xlink" x="0px" y="0px"
	 width="686.277px" height="271.729px" viewBox="0 0 686.277 271.729" style="enable-background:new 0 0 686.277 271.729;"
	 xml:space="preserve">
<style type="text/css">
	.st0{fill:#FFFFFF;}
	.st1{fill:#22F49F;}
</style>
<defs>
</defs>
<g>
	<g>
		<g>
			<path class="st0" d="M0.003,271.729v-124.93h48.324c8.99,0,19.667,1.311,27.346,9.74c4.308,4.683,7.68,12.362,7.68,23.413
				c0,5.432-0.937,10.114-3.559,15.358c-2.623,4.87-5.432,7.68-10.115,9.739c6.556,0.75,13.111,3.746,17.044,7.492
				c5.058,4.87,8.429,12.924,8.429,22.851c0,11.801-4.495,19.854-9.178,24.537c-6.743,6.93-18.543,11.8-33.901,11.8H0.003z
				 M32.406,196.059h5.994c3.372,0,8.991-0.375,12.362-3.934c2.061-2.06,2.997-5.432,2.997-8.241c0-3.184-1.124-6.368-2.997-8.428
				c-2.06-2.061-5.994-3.746-12.362-3.746h-5.994V196.059z M32.406,246.443h7.305c8.991,0,16.483-0.937,20.042-5.057
				c1.499-1.686,2.622-4.495,2.622-8.054c0-3.934-1.311-7.118-3.184-8.991c-3.933-3.933-11.987-4.12-20.041-4.12h-6.743V246.443z"/>
		</g>
		<g>
			<path class="st0" d="M203.225,250.751h-45.327l-8.429,20.978h-34.276l47.949-124.93h35.4l47.013,124.93h-34.65L203.225,250.751z
				 M194.609,226.028l-14.048-40.458l-13.673,40.458H194.609z"/>
		</g>
		<g>
			<path class="st0" d="M271.215,271.729v-124.93h32.403l59.75,76.419v-76.419h32.403v124.93h-32.403l-59.75-76.419v76.419H271.215z
				"/>
		</g>
		<g>
			<path class="st0" d="M433.231,271.729v-124.93h42.518c12.549,0,33.526,1.686,49.635,17.232
				c14.609,14.047,17.419,32.028,17.419,45.514c0,16.483-4.121,31.093-16.295,43.268c-9.928,9.927-26.598,18.917-47.949,18.917
				H433.231z M465.634,244.195h6.556c7.866,0,18.917-0.749,27.346-8.99c4.12-3.934,9.553-11.801,9.553-25.661
				c0-11.612-3.56-21.539-9.74-27.346c-7.68-7.117-17.794-7.867-25.848-7.867h-7.866V244.195z"/>
		</g>
		<g>
			<path class="st0" d="M643.947,250.751H598.62l-8.429,20.978h-34.275l47.949-124.93h35.399l47.013,124.93h-34.65L643.947,250.751z
				 M635.331,226.028l-14.047-40.458l-13.673,40.458H635.331z"/>
		</g>
	</g>
</g>
<g>
	<rect x="592.087" y="31.422" class="st1" width="62.313" height="62.106"/>
</g>
<g>
	<path class="st0" d="M50.571,0.028c9.365,0,21.353,1.499,30.53,11.051c7.117,7.305,10.676,18.168,10.676,28.095
		c0,10.676-3.746,20.042-9.927,26.035c-4.87,4.682-11.425,7.492-17.232,8.616l39.146,51.133h-40.27L32.403,77.008v47.949H0V0.028
		H50.571z M32.403,56.03h6.181c4.87,0,11.8-1.311,15.733-5.057c2.435-2.435,4.121-6.555,4.121-10.489
		c0-3.746-1.499-7.867-4.308-10.489c-2.997-2.997-8.429-4.87-15.546-4.87h-6.181V56.03z"/>
</g>
<g>
	<path class="st0" d="M316.728,65.021l-45.14-64.994h38.771l23.6,34.089l22.663-34.089h39.334l-46.639,64.994v59.937h-32.59V65.021z
		"/>
</g>
<g>
	<polygon class="st1" points="261.286,124.964 130.923,124.964 195.907,0 	"/>
</g>
<g>
	<circle class="st1" cx="488.02" cy="62.475" r="35.207"/>
</g>
</svg>