<!-- Generator: Adobe Illustrator 23.0.3, SVG Export Plug-In  -->
<svg version="1.1" xmlns="http://www.w3.org/2000/svg" xmlns:xlink="http://www.w3.org/1999/xlink" x="0px" y="0px"
	 width="30.931px" height="30.931px" viewBox="0 0 30.931 30.931" style="enable-background:new 0 0 30.931 30.931;"
	 xml:space="preserve">
<style type="text/css">
	.st0{fill:#2C435D;}
	.st1{fill:none;stroke:#FFFFFF;stroke-miterlimit:10;}
	.st2{fill:#FFFFFF;}
</style>
<defs>
</defs>
<g>
	<g>
		<circle class="st0" cx="15.466" cy="15.466" r="15.466"/>
	</g>
	<g>
		<path class="st1" d="M18.747,8.238h-6.563c-2.179,0-3.946,1.767-3.946,3.946v6.563c0,2.179,1.767,3.946,3.946,3.946h6.563
			c2.179,0,3.946-1.767,3.946-3.946v-6.563C22.693,10.005,20.927,8.238,18.747,8.238z"/>
		<path class="st1" d="M16.313,11.794h-1.695c-1.559,0-2.824,1.264-2.824,2.824v1.695c0,1.559,1.264,2.824,2.824,2.824h1.695
			c1.559,0,2.824-1.264,2.824-2.824v-1.695C19.137,13.059,17.873,11.794,16.313,11.794z"/>
		<circle class="st2" cx="19.864" cy="11.335" r="0.865"/>
	</g>
</g>
</svg>